<?xml version="1.0" encoding="UTF-8" standalone="no"?>
<svg
   xmlns:dc="http://purl.org/dc/elements/1.1/"
   xmlns:cc="http://creativecommons.org/ns#"
   xmlns:rdf="http://www.w3.org/1999/02/22-rdf-syntax-ns#"
   xmlns:svg="http://www.w3.org/2000/svg"
   xmlns="http://www.w3.org/2000/svg"
   xmlns:sodipodi="http://sodipodi.sourceforge.net/DTD/sodipodi-0.dtd"
   xmlns:inkscape="http://www.inkscape.org/namespaces/inkscape"
   inkscape:version="1.0 (4035a4fb49, 2020-05-01)"
   sodipodi:docname="ris3.svg"
   viewBox="0 0 561.33331 464"
   height="464"
   width="561.33331"
   xml:space="preserve"
   id="svg2"
   version="1.1"><metadata
     id="metadata8"><rdf:RDF><cc:Work
         rdf:about=""><dc:format>image/svg+xml</dc:format><dc:type
           rdf:resource="http://purl.org/dc/dcmitype/StillImage" /><dc:title></dc:title></cc:Work></rdf:RDF></metadata><defs
     id="defs6" /><sodipodi:namedview
     inkscape:current-layer="g10"
     inkscape:window-maximized="1"
     inkscape:window-y="21"
     inkscape:window-x="-8"
     inkscape:cy="232"
     inkscape:cx="290.3019"
     inkscape:zoom="1.6008364"
     showgrid="false"
     id="namedview4"
     inkscape:window-height="1017"
     inkscape:window-width="1920"
     inkscape:pageshadow="2"
     inkscape:pageopacity="0"
     guidetolerance="10"
     gridtolerance="10"
     objecttolerance="10"
     borderopacity="1"
     bordercolor="#666666"
     pagecolor="#ffffff" /><g
     transform="matrix(1.3333333,0,0,-1.3333333,0,464)"
     inkscape:label="ink_ext_XXXXXX"
     inkscape:groupmode="layer"
     id="g10"><g
       transform="scale(0.1)"
       id="g12"><path
         id="path14"
         style="fill:none;stroke:#000000;stroke-width:24.5513;stroke-linecap:butt;stroke-linejoin:miter;stroke-miterlimit:4;stroke-dasharray:none;stroke-opacity:1"
         d="m 500.738,257.852 h 2600.08 v 2239.61 H 500.738 Z" /><path
         id="path16"
         style="fill:#ffffff;fill-opacity:1;fill-rule:nonzero;stroke:none"
         d="m 500.738,257.852 h 2600.08 v 2239.61 H 500.738 Z" /><path
         id="path18"
         style="fill:none;stroke:#000000;stroke-width:12.2757;stroke-linecap:butt;stroke-linejoin:miter;stroke-miterlimit:4;stroke-dasharray:none;stroke-opacity:1"
         d="M 1065.98,3243.98 H 3666.05 V 1004.41" /><path
         id="path20"
         style="fill:none;stroke:#000000;stroke-width:12.2757;stroke-linecap:butt;stroke-linejoin:miter;stroke-miterlimit:4;stroke-dasharray:none;stroke-opacity:1"
         d="M 3666.05,1004.41 3100.82,257.852" /><path
         id="path22"
         style="fill:none;stroke:#000000;stroke-width:12.2757;stroke-linecap:butt;stroke-linejoin:miter;stroke-miterlimit:4;stroke-dasharray:none;stroke-opacity:1"
         d="M 1065.98,3243.98 500.738,2497.46" /><path
         id="path24"
         style="fill:none;stroke:#000000;stroke-width:12.2757;stroke-linecap:butt;stroke-linejoin:miter;stroke-miterlimit:4;stroke-dasharray:none;stroke-opacity:1"
         d="M 3666.05,3243.98 3100.82,2497.46" /><path
         id="path26"
         style="fill:#000000;fill-opacity:1;fill-rule:nonzero;stroke:none"
         d="M 1065.98,1004.41 500.738,257.852" /><path
         id="path28"
         style="fill:none;stroke:#000000;stroke-width:12.2757;stroke-linecap:butt;stroke-linejoin:miter;stroke-miterlimit:4;stroke-dasharray:73.6543, 73.6543;stroke-dashoffset:0;stroke-opacity:1"
         d="M 1065.98,1004.41 500.738,257.852" /><path
         id="path30"
         style="fill:none;stroke:#000000;stroke-width:12.2757;stroke-linecap:butt;stroke-linejoin:miter;stroke-miterlimit:4;stroke-dasharray:73.6543, 73.6543;stroke-dashoffset:0;stroke-opacity:1"
         d="M 1065.98,1004.41 H 3666.05" /><path
         id="path32"
         style="fill:none;stroke:#000000;stroke-width:12.2757;stroke-linecap:butt;stroke-linejoin:miter;stroke-miterlimit:4;stroke-dasharray:73.6543, 73.6543;stroke-dashoffset:0;stroke-opacity:1"
         d="M 1065.98,3243.98 V 1004.41" /><path
         id="path34"
         style="fill:#000000;fill-opacity:1;fill-rule:nonzero;stroke:none"
         d="m 3130.04,252.539 c 0,-24.301 -13.09,-43.949 -29.22,-43.949 -16.17,0 -29.26,19.648 -29.26,43.949 0,24.262 13.09,43.941 29.26,43.941 16.13,0 29.22,-19.679 29.22,-43.941" /><path
         id="path36"
         style="fill:none;stroke:#000000;stroke-width:1.43703;stroke-linecap:butt;stroke-linejoin:miter;stroke-miterlimit:4;stroke-dasharray:none;stroke-opacity:1"
         d="m 3130.04,252.539 c 0,-24.301 -13.09,-43.949 -29.22,-43.949 -16.17,0 -29.26,19.648 -29.26,43.949 0,24.262 13.09,43.941 29.26,43.941 16.13,0 29.22,-19.679 29.22,-43.941" /><path
         id="path38"
         style="fill:#000000;fill-opacity:1;fill-rule:nonzero;stroke:none"
         d="m 530,245.082 c 0,-24.301 -13.09,-43.953 -29.262,-43.953 -16.129,0 -29.218,19.652 -29.218,43.953 0,24.258 13.089,43.938 29.218,43.938 16.172,0 29.262,-19.68 29.262,-43.938" /><path
         id="path40"
         style="fill:none;stroke:#000000;stroke-width:1.43703;stroke-linecap:butt;stroke-linejoin:miter;stroke-miterlimit:4;stroke-dasharray:none;stroke-opacity:1"
         d="m 530,245.082 c 0,-24.301 -13.09,-43.953 -29.262,-43.953 -16.129,0 -29.218,19.652 -29.218,43.953 0,24.258 13.089,43.938 29.218,43.938 16.172,0 29.262,-19.68 29.262,-43.938" /><path
         id="path42"
         style="fill:#000000;fill-opacity:1;fill-rule:nonzero;stroke:none"
         d="m 1106.52,999.059 c 0,-24.258 -13.08,-43.938 -29.25,-43.938 -16.14,0 -29.22,19.68 -29.22,43.938 0,24.261 13.08,43.951 29.22,43.951 16.17,0 29.25,-19.69 29.25,-43.951" /><path
         id="path44"
         style="fill:none;stroke:#000000;stroke-width:1.43703;stroke-linecap:butt;stroke-linejoin:miter;stroke-miterlimit:4;stroke-dasharray:none;stroke-opacity:1"
         d="m 1106.52,999.059 c 0,-24.258 -13.08,-43.938 -29.25,-43.938 -16.14,0 -29.22,19.68 -29.22,43.938 0,24.261 13.08,43.951 29.22,43.951 16.17,0 29.25,-19.69 29.25,-43.951" /><path
         id="path46"
         style="fill:#000000;fill-opacity:1;fill-rule:nonzero;stroke:none"
         d="m 3695.27,1006.52 c 0,-24.25 -13.08,-43.938 -29.22,-43.938 -16.17,0 -29.25,19.688 -29.25,43.938 0,24.3 13.08,43.95 29.25,43.95 16.14,0 29.22,-19.65 29.22,-43.95" /><path
         id="path48"
         style="fill:none;stroke:#000000;stroke-width:1.43703;stroke-linecap:butt;stroke-linejoin:miter;stroke-miterlimit:4;stroke-dasharray:none;stroke-opacity:1"
         d="m 3695.27,1006.52 c 0,-24.25 -13.08,-43.938 -29.22,-43.938 -16.17,0 -29.25,19.688 -29.25,43.938 0,24.3 13.08,43.95 29.25,43.95 16.14,0 29.22,-19.65 29.22,-43.95" /><path
         id="path50"
         style="fill:#000000;fill-opacity:1;fill-rule:nonzero;stroke:none"
         d="m 541.289,2507.07 c 0,-24.3 -13.09,-43.95 -29.219,-43.95 -16.172,0 -29.261,19.65 -29.261,43.95 0,24.26 13.089,43.95 29.261,43.95 16.129,0 29.219,-19.69 29.219,-43.95" /><path
         id="path52"
         style="fill:none;stroke:#000000;stroke-width:1.43703;stroke-linecap:butt;stroke-linejoin:miter;stroke-miterlimit:4;stroke-dasharray:none;stroke-opacity:1"
         d="m 541.289,2507.07 c 0,-24.3 -13.09,-43.95 -29.219,-43.95 -16.172,0 -29.261,19.65 -29.261,43.95 0,24.26 13.089,43.95 29.261,43.95 16.129,0 29.219,-19.69 29.219,-43.95" /><path
         id="path54"
         style="fill:#000000;fill-opacity:1;fill-rule:nonzero;stroke:none"
         d="m 1100.86,3246.13 c 0,-24.26 -13.09,-43.94 -29.22,-43.94 -16.17,0 -29.26,19.68 -29.26,43.94 0,24.26 13.09,43.95 29.26,43.95 16.13,0 29.22,-19.69 29.22,-43.95" /><path
         id="path56"
         style="fill:none;stroke:#000000;stroke-width:1.28385;stroke-linecap:butt;stroke-linejoin:miter;stroke-miterlimit:4;stroke-dasharray:none;stroke-opacity:1"
         d="m 1100.86,3255 c 0,-19.38 -13.09,-35.08 -29.22,-35.08 -16.17,0 -29.26,15.7 -29.26,35.08 0,19.37 13.09,35.08 29.26,35.08 16.13,0 29.22,-15.71 29.22,-35.08" /><path
         id="path58"
         style="fill:none;stroke:#000000;stroke-width:2.6606;stroke-linecap:butt;stroke-linejoin:miter;stroke-miterlimit:4;stroke-dasharray:none;stroke-opacity:1"
         d="m 3169.1,2507.07 c 0,-38.83 -28.08,-70.27 -62.69,-70.27 -34.65,0 -62.7,31.44 -62.7,70.27 0,38.79 28.05,70.27 62.7,70.27 34.61,0 62.69,-31.48 62.69,-70.27" /><path
         id="path60"
         style="fill:#000000;fill-opacity:1;fill-rule:nonzero;stroke:none"
         d="m 3169.1,2507.07 c 0,-38.83 -28.08,-70.27 -62.69,-70.27 -34.65,0 -62.7,31.44 -62.7,70.27 0,38.79 28.05,70.27 62.7,70.27 34.61,0 62.69,-31.48 62.69,-70.27" /><path
         id="path62"
         style="fill:none;stroke:#000000;stroke-width:1.43703;stroke-linecap:butt;stroke-linejoin:miter;stroke-miterlimit:4;stroke-dasharray:none;stroke-opacity:1"
         d="m 3695.27,3238.67 c 0,-24.3 -13.08,-43.94 -29.22,-43.94 -16.17,0 -29.25,19.64 -29.25,43.94 0,24.26 13.08,43.95 29.25,43.95 16.14,0 29.22,-19.69 29.22,-43.95" /><path
         id="path64"
         style="fill:#000000;fill-opacity:1;fill-rule:nonzero;stroke:none"
         d="m 3695.27,3238.67 c 0,-24.3 -13.08,-43.94 -29.22,-43.94 -16.17,0 -29.25,19.64 -29.25,43.94 0,24.26 13.08,43.95 29.25,43.95 16.14,0 29.22,-19.69 29.22,-43.95" /><g
         transform="scale(10)"
         id="g66"><text
           id="text84"
           style="font-style:italic;font-variant:normal;font-weight:bold;font-size:17.9168px;font-family:'Times New Roman';-inkscape-font-specification:TimesNewRomanPS-BoldItalicMT;writing-mode:lr-tb;fill:#000000;fill-opacity:1;fill-rule:nonzero;stroke:none"
           transform="matrix(0.757138,0,0,-1,298.21,6.54609)"><tspan
             id="tspan68"
             sodipodi:role="line"
             y="0"
             x="0 5.9662943 10.947165 15.426365 20.407236 24.886435 33.844833 39.811131 48.769531">(i,j,k-1)</tspan><tspan
             id="tspan70"
             sodipodi:role="line"
             y="-95.985199"
             x="93.316597 99.282898 104.26376 108.74297 113.72384 119.69013 128.64853 133.12773 142.08614 148.05243 157.01082">(i,j-1,k-1)</tspan><tspan
             id="tspan72"
             sodipodi:role="line"
             y="-99.875427"
             x="-251.8204 -245.85411 -240.87323 -234.90694 -225.94855 -221.46935 -216.48846 -210.52217 -201.56378 -197.08458 -188.12617 -182.10599 -173.14758">(i-1,j-1,k-1)</tspan><tspan
             id="tspan74"
             sodipodi:role="line"
             y="2.2395699"
             x="-357.59039 -351.62411 -346.64325 -340.67694 -331.71854 -327.23935 -322.25848 -317.77927 -308.82086 -302.85458 -293.89618">(i-1,j,k-1)</tspan><tspan
             id="tspan76"
             sodipodi:role="line"
             y="-244.97443"
             x="-393.8913 -387.92502 -382.94412 -376.97784 -368.01944 -363.54025 -358.55936 -354.08017 -345.12177">(i-1,j,k)</tspan><tspan
             id="tspan78"
             sodipodi:role="line"
             y="-329.22214"
             x="-300.29721 -294.3309 -289.35004 -283.38373 -274.42535 -269.94614 -264.96527 -258.99896 -250.04057 -245.56137 -236.60298">(i-1,j-1,k)</tspan><tspan
             id="tspan80"
             sodipodi:role="line"
             y="-324.74323"
             x="52.256802 58.223095 63.203964 67.683167 72.664032 78.630333 87.58873 92.067932 101.02633">(i,j-1,k)</tspan><tspan
             id="tspan82"
             sodipodi:role="line"
             y="-252.21352"
             x="-29.3055 -23.339205 -18.358335 -13.879135 -8.8982649 -4.419065 4.5393353">(i,j,k)</tspan></text></g><path
         id="path86"
         style="fill:#000000;fill-opacity:1;fill-rule:nonzero;stroke:none"
         d="m 2100,1755 c 0,-19.38 -13.09,-35.08 -29.22,-35.08 -16.17,0 -29.26,15.7 -29.26,35.08 0,19.37 13.09,35.08 29.26,35.08 16.13,0 29.22,-15.71 29.22,-35.08" /><path
         id="path88"
         style="fill:none;stroke:#000000;stroke-width:1.28385;stroke-linecap:butt;stroke-linejoin:miter;stroke-miterlimit:4;stroke-dasharray:none;stroke-opacity:1"
         d="m 2100,1755 c 0,-19.38 -13.09,-35.08 -29.22,-35.08 -16.17,0 -29.26,15.7 -29.26,35.08 0,19.37 13.09,35.08 29.26,35.08 16.13,0 29.22,-15.71 29.22,-35.08" /><path
         id="path90"
         style="fill:none;stroke:#000000;stroke-width:8.59625;stroke-linecap:butt;stroke-linejoin:miter;stroke-miterlimit:4;stroke-dasharray:51.5776, 51.5776;stroke-dashoffset:0;stroke-opacity:1"
         d="m 787.5,1755 h 1275" /><path
         id="path92"
         style="fill:none;stroke:#000000;stroke-width:8.59628;stroke-linecap:butt;stroke-linejoin:miter;stroke-miterlimit:4;stroke-dasharray:51.5776, 51.5776;stroke-dashoffset:0;stroke-opacity:1"
         d="m 787.5,645 h 1275" /><path
         id="path94"
         style="fill:none;stroke:#000000;stroke-width:8.51555;stroke-linecap:butt;stroke-linejoin:miter;stroke-miterlimit:4;stroke-dasharray:51.0932, 51.0932;stroke-dashoffset:0;stroke-opacity:1"
         d="M 790.309,1755 788.871,630" /><path
         id="path96"
         style="fill:none;stroke:#000000;stroke-width:8.51557;stroke-linecap:butt;stroke-linejoin:miter;stroke-miterlimit:4;stroke-dasharray:51.0932, 51.0932;stroke-dashoffset:0;stroke-opacity:1"
         d="M 2065.31,1755 2063.87,630" /><path
         id="path98"
         style="fill:none;stroke:#000000;stroke-width:8.59625;stroke-linecap:butt;stroke-linejoin:miter;stroke-miterlimit:4;stroke-dasharray:51.5776, 51.5776;stroke-dashoffset:0;stroke-opacity:1"
         d="M 1050,2115 H 2325" /><path
         id="path100"
         style="fill:none;stroke:#000000;stroke-width:8.51557;stroke-linecap:butt;stroke-linejoin:miter;stroke-miterlimit:4;stroke-dasharray:51.0932, 51.0932;stroke-dashoffset:0;stroke-opacity:1"
         d="M 2327.81,2115 2326.37,990" /><path
         id="path102"
         style="fill:none;stroke:#000000;stroke-width:8.77448;stroke-linecap:butt;stroke-linejoin:miter;stroke-miterlimit:4;stroke-dasharray:52.6469, 52.6469;stroke-dashoffset:0;stroke-opacity:1"
         d="m 795,1755 255,360" /><path
         id="path104"
         style="fill:none;stroke:#000000;stroke-width:8.90259;stroke-linecap:butt;stroke-linejoin:miter;stroke-miterlimit:4;stroke-dasharray:53.4155, 53.4155;stroke-dashoffset:0;stroke-opacity:1"
         d="M 2062.5,1755 2325,2115" /><path
         id="path106"
         style="fill:none;stroke:#000000;stroke-width:8.77448;stroke-linecap:butt;stroke-linejoin:miter;stroke-miterlimit:4;stroke-dasharray:52.6469, 52.6469;stroke-dashoffset:0;stroke-opacity:1"
         d="m 2070,630 255,360" /><g
         transform="scale(10)"
         id="g108"><text
           id="text118"
           style="font-style:italic;font-variant:normal;font-weight:bold;font-size:14.4022px;font-family:'Times New Roman';-inkscape-font-specification:TimesNewRomanPS-BoldItalicMT;writing-mode:lr-tb;fill:#000000;fill-opacity:1;fill-rule:nonzero;stroke:none"
           transform="matrix(0.952651,0,0,-1,139.853,181.51)"><tspan
             id="tspan110"
             y="0"
             x="0">h</tspan><tspan
             id="tspan112"
             y="2.88047"
             x="8.0166903">x</tspan><tspan
             id="tspan114"
             sodipodi:role="line"
             y="0"
             x="15.21781 19.221622">/2</tspan><tspan
             id="tspan116"
             y="-11.8164"
             x="55.585011">h</tspan></text><text
           id="text122"
           style="font-style:italic;font-variant:normal;font-weight:bold;font-size:14.3437px;font-family:'Times New Roman';-inkscape-font-specification:TimesNewRomanPS-BoldItalicMT;writing-mode:lr-tb;fill:#000000;fill-opacity:1;fill-rule:nonzero;stroke:none"
           transform="matrix(0.95265,0,0,-1,200.443,190.446)"><tspan
             id="tspan120"
             y="0"
             x="0">y</tspan></text><text
           id="text128"
           style="font-style:italic;font-variant:normal;font-weight:bold;font-size:14.4022px;font-family:'Times New Roman';-inkscape-font-specification:TimesNewRomanPS-BoldItalicMT;writing-mode:lr-tb;fill:#000000;fill-opacity:1;fill-rule:nonzero;stroke:none"
           transform="matrix(0.952651,0,0,-1,206.501,193.327)"><tspan
             id="tspan124"
             sodipodi:role="line"
             y="0"
             x="0 4.0038118">/2</tspan><tspan
             id="tspan126"
             y="52.102299"
             x="-29.7833">h</tspan></text><text
           id="text132"
           style="font-style:italic;font-variant:normal;font-weight:bold;font-size:14.3437px;font-family:'Times New Roman';-inkscape-font-specification:TimesNewRomanPS-BoldItalicMT;writing-mode:lr-tb;fill:#000000;fill-opacity:1;fill-rule:nonzero;stroke:none"
           transform="matrix(0.95265,0,0,-1,185.765,138.344)"><tspan
             id="tspan130"
             y="0"
             x="0">z</tspan></text><text
           id="text136"
           style="font-style:italic;font-variant:normal;font-weight:bold;font-size:14.4022px;font-family:'Times New Roman';-inkscape-font-specification:TimesNewRomanPS-BoldItalicMT;writing-mode:lr-tb;fill:#000000;fill-opacity:1;fill-rule:nonzero;stroke:none"
           transform="matrix(0.952651,0,0,-1,191.077,141.224)"><tspan
             id="tspan134"
             sodipodi:role="line"
             y="0"
             x="0 4.0038118">/2</tspan></text></g></g><text
       transform="matrix(0.8841271,0,0,-1.0380965,-201.16798,-57.947056)"
       id="text140"
       y="-220.48169"
       x="467.21878"
       style="font-size:14px;line-height:1.25;font-family:sans-serif;letter-spacing:0px;white-space:pre;inline-size:0;stroke-width:0.75"
       xml:space="preserve"><tspan
         style="font-style:normal;font-variant:normal;font-weight:normal;font-stretch:normal;font-size:14px;font-family:'Times New Roman';-inkscape-font-specification:'Times New Roman, ';stroke-width:0.75"
         y="-220.48169"
         x="467.21878"
         id="tspan138">Центр расчетной ячейки</tspan></text></g></svg>
