<?xml version="1.0" encoding="UTF-8" standalone="no"?>
<svg
   xmlns:dc="http://purl.org/dc/elements/1.1/"
   xmlns:cc="http://creativecommons.org/ns#"
   xmlns:rdf="http://www.w3.org/1999/02/22-rdf-syntax-ns#"
   xmlns:svg="http://www.w3.org/2000/svg"
   xmlns="http://www.w3.org/2000/svg"
   xmlns:sodipodi="http://sodipodi.sourceforge.net/DTD/sodipodi-0.dtd"
   xmlns:inkscape="http://www.inkscape.org/namespaces/inkscape"
   inkscape:version="1.0 (4035a4fb49, 2020-05-01)"
   sodipodi:docname="ris3.svg"
   viewBox="0 0 230 220"
   height="220"
   width="230"
   xml:space="preserve"
   id="svg2"
   version="1.1"><metadata
     id="metadata8"><rdf:RDF><cc:Work
         rdf:about=""><dc:format>image/svg+xml</dc:format><dc:type
           rdf:resource="http://purl.org/dc/dcmitype/StillImage" /><dc:title></dc:title></cc:Work></rdf:RDF></metadata><defs
     id="defs6" /><sodipodi:namedview
     inkscape:current-layer="g10"
     inkscape:window-maximized="1"
     inkscape:window-y="21"
     inkscape:window-x="-8"
     inkscape:cy="206.7483"
     inkscape:cx="430.28298"
     inkscape:zoom="1.5840517"
     showgrid="false"
     id="namedview4"
     inkscape:window-height="1017"
     inkscape:window-width="1920"
     inkscape:pageshadow="2"
     inkscape:pageopacity="0"
     guidetolerance="10"
     gridtolerance="10"
     objecttolerance="10"
     borderopacity="1"
     bordercolor="#666666"
     pagecolor="#ffffff" /><g
     transform="matrix(1.3333333,0,0,-1.3333333,0,464)"
     inkscape:label="ink_ext_XXXXXX"
     inkscape:groupmode="layer"
     id="g10"><g
       transform="matrix(0.03903437,0,0,0.04181491,2.2978055,196.27217)"
       id="g12"><path
         id="path14"
         style="fill:none;stroke:#000000;stroke-width:24.5513;stroke-linecap:butt;stroke-linejoin:miter;stroke-miterlimit:4;stroke-dasharray:none;stroke-opacity:1"
         d="m 500.738,257.852 h 2600.08 v 2239.61 H 500.738 Z" /><path
         id="path16"
         style="fill:#ffffff;fill-opacity:1;fill-rule:nonzero;stroke:none"
         d="m 500.738,257.852 h 2600.08 v 2239.61 H 500.738 Z" /><path
         id="path18"
         style="fill:none;stroke:#000000;stroke-width:12.2757;stroke-linecap:butt;stroke-linejoin:miter;stroke-miterlimit:4;stroke-dasharray:none;stroke-opacity:1"
         d="M 1065.98,3243.98 H 3666.05 V 1004.41" /><path
         id="path20"
         style="fill:none;stroke:#000000;stroke-width:12.2757;stroke-linecap:butt;stroke-linejoin:miter;stroke-miterlimit:4;stroke-dasharray:none;stroke-opacity:1"
         d="M 3666.05,1004.41 3100.82,257.852" /><path
         id="path22"
         style="fill:none;stroke:#000000;stroke-width:12.2757;stroke-linecap:butt;stroke-linejoin:miter;stroke-miterlimit:4;stroke-dasharray:none;stroke-opacity:1"
         d="M 1065.98,3243.98 500.738,2497.46" /><path
         id="path24"
         style="fill:none;stroke:#000000;stroke-width:12.2757;stroke-linecap:butt;stroke-linejoin:miter;stroke-miterlimit:4;stroke-dasharray:none;stroke-opacity:1"
         d="M 3666.05,3243.98 3100.82,2497.46" /><path
         id="path26"
         style="fill:#000000;fill-opacity:1;fill-rule:nonzero;stroke:none"
         d="M 1065.98,1004.41 500.738,257.852" /><path
         id="path28"
         style="fill:none;stroke:#000000;stroke-width:12.2757;stroke-linecap:butt;stroke-linejoin:miter;stroke-miterlimit:4;stroke-dasharray:73.6543, 73.6543;stroke-dashoffset:0;stroke-opacity:1"
         d="M 1065.98,1004.41 500.738,257.852" /><path
         id="path30"
         style="fill:none;stroke:#000000;stroke-width:12.2757;stroke-linecap:butt;stroke-linejoin:miter;stroke-miterlimit:4;stroke-dasharray:73.6543, 73.6543;stroke-dashoffset:0;stroke-opacity:1"
         d="M 1065.98,1004.41 H 3666.05" /><path
         id="path32"
         style="fill:none;stroke:#000000;stroke-width:12.2757;stroke-linecap:butt;stroke-linejoin:miter;stroke-miterlimit:4;stroke-dasharray:73.6543, 73.6543;stroke-dashoffset:0;stroke-opacity:1"
         d="M 1065.98,3243.98 V 1004.41" /><path
         id="path34"
         style="fill:#000000;fill-opacity:1;fill-rule:nonzero;stroke:none"
         d="m 3130.04,252.539 c 0,-24.301 -13.09,-43.949 -29.22,-43.949 -16.17,0 -29.26,19.648 -29.26,43.949 0,24.262 13.09,43.941 29.26,43.941 16.13,0 29.22,-19.679 29.22,-43.941" /><path
         id="path36"
         style="fill:none;stroke:#000000;stroke-width:1.43703;stroke-linecap:butt;stroke-linejoin:miter;stroke-miterlimit:4;stroke-dasharray:none;stroke-opacity:1"
         d="m 3130.04,252.539 c 0,-24.301 -13.09,-43.949 -29.22,-43.949 -16.17,0 -29.26,19.648 -29.26,43.949 0,24.262 13.09,43.941 29.26,43.941 16.13,0 29.22,-19.679 29.22,-43.941" /><path
         id="path38"
         style="fill:#000000;fill-opacity:1;fill-rule:nonzero;stroke:none"
         d="m 530,245.082 c 0,-24.301 -13.09,-43.953 -29.262,-43.953 -16.129,0 -29.218,19.652 -29.218,43.953 0,24.258 13.089,43.938 29.218,43.938 16.172,0 29.262,-19.68 29.262,-43.938" /><path
         id="path40"
         style="fill:none;stroke:#000000;stroke-width:1.43703;stroke-linecap:butt;stroke-linejoin:miter;stroke-miterlimit:4;stroke-dasharray:none;stroke-opacity:1"
         d="m 530,245.082 c 0,-24.301 -13.09,-43.953 -29.262,-43.953 -16.129,0 -29.218,19.652 -29.218,43.953 0,24.258 13.089,43.938 29.218,43.938 16.172,0 29.262,-19.68 29.262,-43.938" /><path
         id="path42"
         style="fill:#000000;fill-opacity:1;fill-rule:nonzero;stroke:none"
         d="m 1106.52,999.059 c 0,-24.258 -13.08,-43.938 -29.25,-43.938 -16.14,0 -29.22,19.68 -29.22,43.938 0,24.261 13.08,43.951 29.22,43.951 16.17,0 29.25,-19.69 29.25,-43.951" /><path
         id="path44"
         style="fill:none;stroke:#000000;stroke-width:1.43703;stroke-linecap:butt;stroke-linejoin:miter;stroke-miterlimit:4;stroke-dasharray:none;stroke-opacity:1"
         d="m 1106.52,999.059 c 0,-24.258 -13.08,-43.938 -29.25,-43.938 -16.14,0 -29.22,19.68 -29.22,43.938 0,24.261 13.08,43.951 29.22,43.951 16.17,0 29.25,-19.69 29.25,-43.951" /><path
         id="path46"
         style="fill:#000000;fill-opacity:1;fill-rule:nonzero;stroke:none"
         d="m 3695.27,1006.52 c 0,-24.25 -13.08,-43.938 -29.22,-43.938 -16.17,0 -29.25,19.688 -29.25,43.938 0,24.3 13.08,43.95 29.25,43.95 16.14,0 29.22,-19.65 29.22,-43.95" /><path
         id="path48"
         style="fill:none;stroke:#000000;stroke-width:1.43703;stroke-linecap:butt;stroke-linejoin:miter;stroke-miterlimit:4;stroke-dasharray:none;stroke-opacity:1"
         d="m 3695.27,1006.52 c 0,-24.25 -13.08,-43.938 -29.22,-43.938 -16.17,0 -29.25,19.688 -29.25,43.938 0,24.3 13.08,43.95 29.25,43.95 16.14,0 29.22,-19.65 29.22,-43.95" /><path
         id="path50"
         style="fill:#000000;fill-opacity:1;fill-rule:nonzero;stroke:none"
         d="m 541.289,2507.07 c 0,-24.3 -13.09,-43.95 -29.219,-43.95 -16.172,0 -29.261,19.65 -29.261,43.95 0,24.26 13.089,43.95 29.261,43.95 16.129,0 29.219,-19.69 29.219,-43.95" /><path
         id="path52"
         style="fill:none;stroke:#000000;stroke-width:1.43703;stroke-linecap:butt;stroke-linejoin:miter;stroke-miterlimit:4;stroke-dasharray:none;stroke-opacity:1"
         d="m 541.289,2507.07 c 0,-24.3 -13.09,-43.95 -29.219,-43.95 -16.172,0 -29.261,19.65 -29.261,43.95 0,24.26 13.089,43.95 29.261,43.95 16.129,0 29.219,-19.69 29.219,-43.95" /><path
         id="path54"
         style="fill:#000000;fill-opacity:1;fill-rule:nonzero;stroke:none"
         d="m 1100.86,3246.13 c 0,-24.26 -13.09,-43.94 -29.22,-43.94 -16.17,0 -29.26,19.68 -29.26,43.94 0,24.26 13.09,43.95 29.26,43.95 16.13,0 29.22,-19.69 29.22,-43.95" /><path
         id="path56"
         style="fill:none;stroke:#000000;stroke-width:1.43703;stroke-linecap:butt;stroke-linejoin:miter;stroke-miterlimit:4;stroke-dasharray:none;stroke-opacity:1"
         d="m 1100.86,3246.13 c 0,-24.26 -13.09,-43.94 -29.22,-43.94 -16.17,0 -29.26,19.68 -29.26,43.94 0,24.26 13.09,43.95 29.26,43.95 16.13,0 29.22,-19.69 29.22,-43.95" /><path
         id="path58"
         style="fill:none;stroke:#000000;stroke-width:2.6606;stroke-linecap:butt;stroke-linejoin:miter;stroke-miterlimit:4;stroke-dasharray:none;stroke-opacity:1"
         d="m 3169.1,2507.07 c 0,-38.83 -28.08,-70.27 -62.69,-70.27 -34.65,0 -62.7,31.44 -62.7,70.27 0,38.79 28.05,70.27 62.7,70.27 34.61,0 62.69,-31.48 62.69,-70.27" /><path
         id="path60"
         style="fill:#000000;fill-opacity:1;fill-rule:nonzero;stroke:none"
         d="m 3169.1,2507.07 c 0,-38.83 -28.08,-70.27 -62.69,-70.27 -34.65,0 -62.7,31.44 -62.7,70.27 0,38.79 28.05,70.27 62.7,70.27 34.61,0 62.69,-31.48 62.69,-70.27" /><path
         id="path62"
         style="fill:none;stroke:#000000;stroke-width:1.43703;stroke-linecap:butt;stroke-linejoin:miter;stroke-miterlimit:4;stroke-dasharray:none;stroke-opacity:1"
         d="m 3695.27,3238.67 c 0,-24.3 -13.08,-43.94 -29.22,-43.94 -16.17,0 -29.25,19.64 -29.25,43.94 0,24.26 13.08,43.95 29.25,43.95 16.14,0 29.22,-19.69 29.22,-43.95" /><path
         id="path64"
         style="fill:#000000;fill-opacity:1;fill-rule:nonzero;stroke:none"
         d="m 3695.27,3238.67 c 0,-24.3 -13.08,-43.94 -29.22,-43.94 -16.17,0 -29.25,19.64 -29.25,43.94 0,24.26 13.08,43.95 29.25,43.95 16.14,0 29.22,-19.69 29.22,-43.95" /><g
         transform="scale(10)"
         id="g66"><text
           id="text84"
           style="font-style:italic;font-variant:normal;font-weight:bold;font-size:17.9168px;font-family:'Times New Roman';-inkscape-font-specification:TimesNewRomanPS-BoldItalicMT;writing-mode:lr-tb;fill:#000000;fill-opacity:1;fill-rule:nonzero;stroke:none"
           transform="matrix(0.757138,0,0,-1,298.21,6.54609)"><tspan
             id="tspan68"
             sodipodi:role="line"
             y="0"
             x="0 5.9662943 10.947165 15.426365 20.407236 24.886435 33.844833 39.811131 48.769531">(i,j,k-1)</tspan><tspan
             id="tspan70"
             sodipodi:role="line"
             y="-95.985199"
             x="93.317001 99.283295 104.26417 108.74336 113.72424 119.69053 128.64893 133.12813 142.08653 148.05283 157.01123">(i,j-1,k-1)</tspan><tspan
             id="tspan72"
             sodipodi:role="line"
             y="-99.875427"
             x="-251.82001 -245.8537 -240.87283 -234.90654 -225.94814 -221.46895 -216.48807 -210.52177 -201.56337 -197.08418 -188.12578 -182.10573 -173.14732">(i-1,j-1,k-1)</tspan><tspan
             id="tspan74"
             sodipodi:role="line"
             y="2.2395699"
             x="-357.59 -351.62372 -346.64282 -340.67654 -331.71814 -327.23895 -322.25806 -317.77887 -308.82047 -302.85419 -293.89578">(i-1,j,k-1)</tspan><tspan
             id="tspan76"
             sodipodi:role="line"
             y="-244.97443"
             x="-393.89081 -387.9245 -382.94363 -376.97736 -368.01895 -363.53973 -358.55887 -354.07968 -345.12128">(i-1,j,k)</tspan><tspan
             id="tspan78"
             sodipodi:role="line"
             y="-329.22214"
             x="-300.29669 -294.33041 -289.34955 -283.38324 -274.42484 -269.94565 -264.96478 -258.99847 -250.04007 -245.56088 -236.60248">(i-1,j-1,k)</tspan><tspan
             id="tspan80"
             sodipodi:role="line"
             y="-324.74323"
             x="52.257301 58.223595 63.204464 67.683662 72.664536 78.630829 87.589233 92.068428 101.02683">(i,j-1,k)</tspan><tspan
             id="tspan82"
             sodipodi:role="line"
             y="-252.21352"
             x="-29.304899 -23.338606 -18.357735 -13.878535 -8.897665 -4.4184647 4.5399351">(i,j,k)</tspan></text></g></g></g></svg>
